<svg aria-hidden="true" style="width:0;height:0;position:absolute;overflow:hidden" xmlns="http://www.w3.org/2000/svg"><defs><symbol id="logo" viewBox="0 0 32 32"><path d="M12.032.64C2.368 3.584-2.56 14.4 1.984 23.04c1.472 2.88 3.968 5.504 6.4 6.784 2.752 1.408 3.2.512.704-1.408C7.36 27.008 7.04 26.368 7.04 24c0-1.664-.384-3.008-.96-3.52-1.216-1.024-1.216-3.456 0-4.48.576-.448.896-.96.704-1.088-.128-.128 0-1.344.384-2.624 1.536-5.824 8.128-8.896 13.248-6.208 2.88 1.472 5.184 4.608 5.184 7.04 0 1.152.448 2.432.96 2.88s.96 1.472.96 2.24c0 .768-.448 1.792-.96 2.24-.576.512-.96 1.856-.96 3.52 0 2.368-.32 3.008-2.048 4.416-2.816 2.176-1.856 2.752 1.28.768 8.448-5.312 9.536-17.408 2.24-24.512C23.04.768 16.96-.832 12.032.64z"/><path d="M12.672 8.064c-1.024.512-1.792 1.216-1.792 1.472 0 .704 3.52 1.984 5.44 1.984 1.984 0 5.44-1.28 5.44-1.984 0-.832-4.032-2.496-5.888-2.496-.832.064-2.24.512-3.2 1.024z"/><path d="M9.344 11.968c-.192.256-.384 1.088-.384 1.92 0 1.472.064 1.472 7.36 1.472h7.36v-1.92c0-2.176-.256-2.24-2.56-.96-2.112 1.216-7.232 1.216-9.536 0-1.024-.512-1.984-.704-2.24-.512zm-1.856 5.696c-1.024 1.088.704 1.536 5.696 1.536h5.376v2.24c0 1.216.32 2.24.64 2.24.384 0 .64-.96.64-2.176 0-2.112.128-2.24 2.56-2.432 1.408-.128 2.56-.512 2.56-.832 0-.704-16.768-1.28-17.472-.576z"/><path d="M8.96 23.296c0 3.52 1.216 4.224 7.36 4.224s7.36-.704 7.36-4.288c0-2.432-1.472-2.752-1.792-.32-.512 3.392-4.992 3.52-5.696.128-.32-1.856-.512-1.92-3.776-1.92H8.96v2.176zm3.968 7.232c.384 2.048 6.912 1.856 6.912-.128 0-.704-.832-.96-3.584-.96-3.008 0-3.52.192-3.328 1.088z"/></symbol><symbol id="burger" viewBox="0 0 46 32"><path stroke="currentColor" style="stroke:var(--color1,currentColor)" stroke-width="6" d="M0 2.286h45.714M0 16h45.714M0 29.714h45.714"/></symbol><symbol id="close" viewBox="0 0 32 32"><path style="stroke:var(--color1,currentColor)" stroke-width="2" d="m2.52 2 26.96 28M2 29.48 30 2.52"/></symbol></defs></svg>