<svg aria-hidden="true" style="width:0;height:0;position:absolute;overflow:hidden" xmlns="http://www.w3.org/2000/svg"><defs><symbol id="logo" viewBox="0 0 32 32"><path d="M12.032.64C2.368 3.584-2.56 14.4 1.984 23.04c1.472 2.88 3.968 5.504 6.4 6.784 2.752 1.408 3.2.512.704-1.408C7.36 27.008 7.04 26.368 7.04 24c0-1.664-.384-3.008-.96-3.52-1.216-1.024-1.216-3.456 0-4.48.576-.448.896-.96.704-1.088-.128-.128 0-1.344.384-2.624 1.536-5.824 8.128-8.896 13.248-6.208 2.88 1.472 5.184 4.608 5.184 7.04 0 1.152.448 2.432.96 2.88s.96 1.472.96 2.24c0 .768-.448 1.792-.96 2.24-.576.512-.96 1.856-.96 3.52 0 2.368-.32 3.008-2.048 4.416-2.816 2.176-1.856 2.752 1.28.768 8.448-5.312 9.536-17.408 2.24-24.512C23.04.768 16.96-.832 12.032.64z"/><path d="M12.672 8.064c-1.024.512-1.792 1.216-1.792 1.472 0 .704 3.52 1.984 5.44 1.984 1.984 0 5.44-1.28 5.44-1.984 0-.832-4.032-2.496-5.888-2.496-.832.064-2.24.512-3.2 1.024z"/><path d="M9.344 11.968c-.192.256-.384 1.088-.384 1.92 0 1.472.064 1.472 7.36 1.472h7.36v-1.92c0-2.176-.256-2.24-2.56-.96-2.112 1.216-7.232 1.216-9.536 0-1.024-.512-1.984-.704-2.24-.512zm-1.856 5.696c-1.024 1.088.704 1.536 5.696 1.536h5.376v2.24c0 1.216.32 2.24.64 2.24.384 0 .64-.96.64-2.176 0-2.112.128-2.24 2.56-2.432 1.408-.128 2.56-.512 2.56-.832 0-.704-16.768-1.28-17.472-.576z"/><path d="M8.96 23.296c0 3.52 1.216 4.224 7.36 4.224s7.36-.704 7.36-4.288c0-2.432-1.472-2.752-1.792-.32-.512 3.392-4.992 3.52-5.696.128-.32-1.856-.512-1.92-3.776-1.92H8.96v2.176zm3.968 7.232c.384 2.048 6.912 1.856 6.912-.128 0-.704-.832-.96-3.584-.96-3.008 0-3.52.192-3.328 1.088z"/></symbol><symbol id="burger" viewBox="0 0 46 32"><path stroke="currentColor" style="stroke:var(--color1,currentColor)" stroke-width="6" d="M0 2.286h45.714M0 16h45.714M0 29.714h45.714"/></symbol><symbol id="close" viewBox="0 0 32 32"><path style="stroke:var(--color1,currentColor)" stroke-width="2" d="m2.52 2 26.96 28M2 29.48 30 2.52"/></symbol><symbol id="ellipsis" viewBox="0 0 139 32"><path fill="#fff" style="fill:var(--color1,currentColor)" d="M85.333 16c0 8.837-7.163 16-16 16s-16-7.163-16-16 7.163-16 16-16 16 7.163 16 16zM32 16c0 8.837-7.163 16-16 16S0 24.837 0 16 7.163 0 16 0s16 7.163 16 16zM138.667 16c0 8.837-7.163 16-16 16s-16-7.163-16-16 7.163-16 16-16 16 7.163 16 16z"/></symbol><symbol id="more_sign" viewBox="0 0 26 32"><path fill="none" stroke="#d41443" style="stroke:var(--color1,#d41443)" stroke-linejoin="round" stroke-linecap="round" stroke-width="6.4" d="M5.172 3.2 19.341 16 5.172 28.8"/></symbol><symbol id="github" viewBox="0 0 32 32"><path fill="#fea5bb" style="fill:var(--color1,currentColor)" d="M32 16c0 8.837-7.163 16-16 16S0 24.837 0 16 7.163 0 16 0s16 7.163 16 16z"/><path fill="#fff" style="fill:var(--color2,#fff)" d="M16 6.588c-5.17 0-9.412 4.243-9.412 9.412 0 4.412 3.096 8.419 7.206 9.412v-3.114c-.407.09-.782.092-1.197-.03-.556-.165-1.008-.535-1.343-1.1-.214-.36-.593-.752-.988-.723l-.097-1.099c.855-.073 1.594.521 2.033 1.259.195.328.42.52.708.605.278.082.577.043.926-.08.087-.698.407-.96.648-1.327-2.451-.366-3.428-1.666-3.816-2.693-.514-1.363-.238-3.066.67-4.142.018-.02.05-.076.038-.114-.417-1.259.09-2.3.11-2.41.48.142.558-.143 2.088.786l.264.159c.11.066.076.028.187.02a7.777 7.777 0 0 1 1.969-.278H16a7.986 7.986 0 0 1 2.058.299l-.056-.014.086.009c-.008-.002.023-.006.075-.037 1.91-1.157 1.842-.779 2.354-.945.019.11.52 1.168.108 2.41-.056.172 1.656 1.74.707 4.257-.388 1.027-1.365 2.327-3.816 2.693.314.48.692.734.69 1.722v3.887c4.11-.993 7.206-5 7.206-9.412 0-5.17-4.242-9.412-9.412-9.412z"/></symbol><symbol id="facebook" viewBox="0 0 33 32"><path fill="#fea5bb" style="fill:var(--color1,currentColor)" d="M16.47 32c8.837 0 16-7.163 16-16s-7.163-16-16-16c-8.836 0-16 7.163-16 16s7.164 16 16 16z"/><path fill="#fff" style="fill:var(--color2,#fff)" d="M20.916 15.981h-2.61V25.6h-3.955v-9.62h-1.88V12.6h1.88v-2.187c0-1.565.74-4.014 3.99-4.014l2.93.012v3.281h-2.126c-.348 0-.839.176-.839.922v1.99h2.956l-.346 3.376z"/></symbol><symbol id="telegram" viewBox="0 0 33 32"><path fill="#fea5bb" style="fill:var(--color1,currentColor)" d="M32.235 16c0 8.837-7.163 16-16 16s-16-7.163-16-16 7.163-16 16-16 16 7.163 16 16z"/><path fill="#fff" style="fill:var(--color2,#fff)" d="m13.102 18.375-.317 4.17c.454 0 .651-.183.887-.401l2.13-1.9 4.415 3.017c.81.42 1.38.199 1.599-.695l2.897-12.673h.001c.257-1.118-.433-1.554-1.222-1.28L6.46 14.699c-1.162.42-1.145 1.026-.198 1.3l4.355 1.264 10.114-5.907c.476-.294.91-.131.553.163l-8.181 6.856z"/></symbol></defs></svg>