<svg aria-hidden="true" style="position: absolute; width: 0; height: 0; overflow: hidden;" version="1.1" xmlns="http://www.w3.org/2000/svg" xmlns:xlink="http://www.w3.org/1999/xlink">
<defs>
<symbol id="logo" viewBox="0 0 32 32">
<path d="M12.032 0.64c-9.664 2.944-14.592 13.76-10.048 22.4 1.472 2.88 3.968 5.504 6.4 6.784 2.752 1.408 3.2 0.512 0.704-1.408-1.728-1.408-2.048-2.048-2.048-4.416 0-1.664-0.384-3.008-0.96-3.52-1.216-1.024-1.216-3.456 0-4.48 0.576-0.448 0.896-0.96 0.704-1.088-0.128-0.128 0-1.344 0.384-2.624 1.536-5.824 8.128-8.896 13.248-6.208 2.88 1.472 5.184 4.608 5.184 7.040 0 1.152 0.448 2.432 0.96 2.88s0.96 1.472 0.96 2.24c0 0.768-0.448 1.792-0.96 2.24-0.576 0.512-0.96 1.856-0.96 3.52 0 2.368-0.32 3.008-2.048 4.416-2.816 2.176-1.856 2.752 1.28 0.768 8.448-5.312 9.536-17.408 2.24-24.512-4.032-3.904-10.112-5.504-15.040-4.032z"></path>
<path d="M12.672 8.064c-1.024 0.512-1.792 1.216-1.792 1.472 0 0.704 3.52 1.984 5.44 1.984 1.984 0 5.44-1.28 5.44-1.984 0-0.832-4.032-2.496-5.888-2.496-0.832 0.064-2.24 0.512-3.2 1.024z"></path>
<path d="M9.344 11.968c-0.192 0.256-0.384 1.088-0.384 1.92 0 1.472 0.064 1.472 7.36 1.472h7.36v-1.92c0-2.176-0.256-2.24-2.56-0.96-2.112 1.216-7.232 1.216-9.536 0-1.024-0.512-1.984-0.704-2.24-0.512zM7.488 17.664c-1.024 1.088 0.704 1.536 5.696 1.536h5.376v2.24c0 1.216 0.32 2.24 0.64 2.24 0.384 0 0.64-0.96 0.64-2.176 0-2.112 0.128-2.24 2.56-2.432 1.408-0.128 2.56-0.512 2.56-0.832 0-0.704-16.768-1.28-17.472-0.576z"></path>
<path d="M8.96 23.296c0 3.52 1.216 4.224 7.36 4.224s7.36-0.704 7.36-4.288c0-2.432-1.472-2.752-1.792-0.32-0.512 3.392-4.992 3.52-5.696 0.128-0.32-1.856-0.512-1.92-3.776-1.92h-3.456v2.176zM12.928 30.528c0.384 2.048 6.912 1.856 6.912-0.128 0-0.704-0.832-0.96-3.584-0.96-3.008 0-3.52 0.192-3.328 1.088z"></path>
</symbol>
<symbol id="burger" viewBox="0 0 46 32">
<path stroke="currentColor" style="stroke: var(--color1, currentColor)" stroke-linejoin="miter" stroke-linecap="butt" stroke-miterlimit="4"
stroke-width="6" d="M0 2.286h45.714M0 16h45.714M0 29.714h45.714"></path>
</symbol>
<symbol id="close" viewBox="0 0 32 32">
<path style="stroke: var(--color1, currentColor)" stroke-linejoin="miter" stroke-linecap="butt" stroke-miterlimit="4" stroke-width="2" d="M2.52 2l26.96 28M2 29.48l28-26.96"></path>
</symbol>
</defs>
</svg>
